<?xml version="1.0" encoding="UTF-8"?>
<svg id="Layer_1" xmlns="http://www.w3.org/2000/svg" version="1.1" viewBox="0 0 1024 327">
  <!-- Generator: Adobe Illustrator 29.6.0, SVG Export Plug-In . SVG Version: 2.1.1 Build 207)  -->
  <defs>
    <style>
      .st0 {
        fill: #fe807f;
      }

      .st0, .st1, .st2, .st3, .st4, .st5, .st6, .st7, .st8, .st9, .st10, .st11, .st12 {
        fill-rule: evenodd;
      }

      .st0, .st1, .st2, .st5, .st6, .st7, .st8, .st9, .st10, .st11 {
        isolation: isolate;
      }

      .st0, .st5 {
        opacity: 0;
      }

      .st1 {
        fill: #f43;
      }

      .st1, .st2, .st7 {
        opacity: 0;
      }

      .st2 {
        fill: #fe0000;
      }

      .st3 {
        fill: #fa7084;
      }

      .st6 {
        opacity: 0;
      }

      .st8 {
        opacity: 0;
      }

      .st9, .st11 {
        opacity: .01;
      }

      .st10 {
        opacity: .02;
      }

      .st11 {
        fill: #ff433d;
      }

      .st12 {
        fill: #fa7184;
      }
    </style>
  </defs>
  <path class="st12" d="M285.5,280.5c-12.27,8.48-25.93,13.31-41,14.5-48.68.8-97.35.63-146-.5-20.05-5.56-32.55-18.56-37.5-39-1.18-61.3-1.18-122.3,0-183,4.16-22.83,17.66-36.33,40.5-40.5,6.91-.19,13.75-.69,20.5-1.5,31.66.33,63.66.33,96,0,12.43.82,24.93,1.32,37.5,1.5,41.32,10.89,61.32,37.89,60,81-.4,27-.4,54.66,0,83-.06,12.52-.56,25.02-1.5,37.5-3.91,19.16-13.41,34.83-28.5,47ZM172.5,84.5c1.53-.07,2.53.59,3,2,1.93.61,3.6,1.61,5,3,4.35,2.17,8.35,4.84,12,8,1.53-.07,2.53.59,3,2,5.94,3.28,11.61,6.95,17,11,15.94,9.95,31.61,20.28,47,31,2.25.62,3.92,1.96,5,4,2.25.58,3.92,1.91,5,4,10.16,11.32,10.49,22.99,1,35-13.5,9.84-27.5,18.84-42,27-7.82,6.08-16.15,11.41-25,16-10.74,8.2-22.4,15.03-35,20.5-9.58,2.46-18.92,1.79-28-2-1.07-.85-2.07-1.68-3-2.5-6.61-4.54-10.11-10.87-10.5-19-.67-40.33-.67-80.67,0-121,.89-11.38,6.72-18.71,17.5-22,9.74-3.19,19.08-2.19,28,3Z"/>
  <path class="st2" d="M270.5,34.5q1.33.67,0,0Z"/>
  <path class="st2" d="M74.5,42.5q1.33.67,0,0Z"/>
  <path class="st2" d="M313.5,84.5q1.33.67,0,0Z"/>
  <path class="st7" d="M400.5,90.5q1.33.67,0,0Z"/>
  <path class="st4" d="M447.5,132.5c.23-2.43-.77-4.1-3-5-.92-2.59-2.59-4.59-5-6-16.73-10.69-31.89-8.69-45.5,6-.46.59-.63,1.26-.5,2-3.19,3.71-5.36,8.05-6.5,13-5.05,19.13-3.71,37.8,4,56,11.18,17,26.01,21.34,44.5,13,9.52-5.02,14.52-13.02,15-24,9.57-.29,18.9-.46,28-.5-.15,11.18-3.65,21.34-10.5,30.5-3.06,4.17-6.56,7.83-10.5,11-6.62,4.48-13.62,8.15-21,11-17.18,3.12-33.52.79-49-7-9.88-7.38-18.21-16.21-25-26.5,1.05-1.75.72-3.25-1-4.5-.3-1.9-.96-3.57-2-5-8.03-28.51-4.7-55.51,10-81,1.47-.94,2.47-2.27,3-4,4.36-4.03,8.69-8.03,13-12,4.32-1.49,8.32-3.49,12-6,3.99-.83,7.99-1.66,12-2.5,19.33-3.64,36.66,1.03,52,14,10.43,10.36,16.43,22.86,18,37.5-7.15-.02-14.32.31-21.5,1-2.4-.77-4.9-1.27-7.5-1.5.5-3.48-.5-6.64-3-9.5Z"/>
  <path class="st7" d="M437.5,91.5c.4-1.03,1.06-1.19,2-.5-.59.46-1.26.63-2,.5Z"/>
  <path class="st4" d="M944.5,118.5c-3.42,3.19-4.76,7.19-4,12h22c1.07,7.42,1.24,14.76.5,22-7.41.98-14.91,1.31-22.5,1,.17,27.34,0,54.67-.5,82-8.54-.29-17.21.04-26,1-.37-.92-.87-1.75-1.5-2.5-.21-27.13.12-53.8,1-80-6.11-.09-12.11-.76-18-2,.68-6.8,1.35-13.64,2-20.5,4.96-.99,9.96-1.33,15-1-1.66-14.23,3.01-25.73,14-34.5,3.17-1.72,6.51-3.06,10-4,8.2-1.41,16.37-1.91,24.5-1.5,1.21,1.98,2.04,4.15,2.5,6.5-.06,5.96-.4,12.12-1,18.5-4.51.14-9.18.3-14,.5-1.82.2-3.15,1.03-4,2.5Z"/>
  <path class="st7" d="M692.5,91.5q1.33.67,0,0Z"/>
  <path class="st4" d="M780.5,99.5c16.82,13.88,22.15,31.38,16,52.5-4.03,12.87-12.37,21.7-25,26.5,2.85,6.38,6.19,12.38,10,18-.07,1.53.59,2.53,2,3,6.05,11.77,12.39,23.44,19,35-2.53.71-5.03,1.38-7.5,2-8.24-.68-16.4-1.01-24.5-1-.96-4.59-2.96-8.59-6-12-2.53-6.06-5.36-12.06-8.5-18-.33.67-.67,1.33-1,2-.68-1.28-.52-2.45.5-3.5-4.4-7.32-8.23-14.49-11.5-21.5-7.08-.98-14.24-1.31-21.5-1v54c-9.84.35-19.17.35-28,0,.22-7.65-.12-15.32-1-23-.18-40.7.15-80.7,1-120,15.81-.29,31.47-.29,47,0,13.38-2.02,26.38.32,39,7ZM763.5,121.5c.84.34,1.17,1.01,1,2,1.74,1.53,2.74,3.53,3,6,3.01,9.93.68,18.43-7,25.5-3.46,1.74-7.12,2.74-11,3-8.91.82-17.74.65-26.5-.5-.46-14.04-.63-27.87-.5-41.5,10.7-.78,21.37-.44,32,1,3.61.47,6.61,1.97,9,4.5Z"/>
  <path class="st7" d="M397.5,93.5q-.67-1.33,0,0Z"/>
  <path class="st7" d="M443.5,92.5q1.33.67,0,0Z"/>
  <path class="st9" d="M385.5,99.5q-.67-1.33,0,0Z"/>
  <path class="st7" d="M780.5,99.5c.4-1.03,1.06-1.19,2-.5-.59.46-1.26.63-2,.5Z"/>
  <path class="st7" d="M380.5,100.5c.4-1.03,1.06-1.19,2-.5-.59.46-1.26.63-2,.5Z"/>
  <path class="st7" d="M379.5,101.5q1.33.67,0,0Z"/>
  <path class="st3" d="M207.5,198.5c-12.76,7.58-25.43,15.41-38,23.5-7.69,1.99-13.85-.17-18.5-6.5-1.64-31.61-1.98-63.27-1-95,5.57-10.97,13.73-13.47,24.5-7.5,20.16,13.91,40.49,27.58,61,41,8.52,10.61,7.19,19.95-4,28-8.24,5.28-16.24,10.78-24,16.5Z"/>
  <path class="st7" d="M372.5,111.5q-.67-1.33,0,0Z"/>
  <path class="st5" d="M363.5,114.5q1.33.67,0,0Z"/>
  <path class="st10" d="M369.5,115.5q-.67-1.33,0,0Z"/>
  <path class="st8" d="M960.5,117.5c.4-1.03,1.06-1.19,2-.5-.59.46-1.26.63-2,.5Z"/>
  <path class="st5" d="M944.5,118.5q1.33.67,0,0Z"/>
  <path class="st5" d="M439.5,121.5q-.67.67,0,0Z"/>
  <path class="st5" d="M630.5,126.5q1.33.67,0,0Z"/>
  <path class="st7" d="M848.5,126.5q1.33.67,0,0Z"/>
  <path class="st7" d="M854.5,126.5q1.33.67,0,0Z"/>
  <path class="st9" d="M444.5,127.5q-.67.67,0,0Z"/>
  <path class="st7" d="M574.5,128.5q1.33.67,0,0Z"/>
  <path class="st4" d="M675.5,147.5c8.34,14.38,11.34,29.71,9,46-23.34-.17-46.67,0-70,.5.56.38.89.88,1,1.5-1.25,3.61-.59,6.94,2,10,3.84,8.47,10.5,12.47,20,12,9.97.02,16.97-4.48,21-13.5,8.38-.2,16.72-.7,25-1.5.49,6.05-1.01,11.72-4.5,17-9.91,14.12-23.58,21.46-41,22-12.6-.21-24.1-4.21-34.5-12-1-1.67-2.33-3-4-4-1.01-1.37-2.01-2.71-3-4-1.01-1.37-2.01-2.71-3-4-10.13-23.85-9.13-47.19,3-70,16-18.38,35.67-23.54,59-15.5,8.04,3.51,14.71,8.67,20,15.5ZM645.5,153.5c8.03,4.02,12.03,10.69,12,20h-43c2.74-19.14,13.07-25.8,31-20Z"/>
  <path class="st4" d="M889.5,147.5c8.35,13.06,11.35,28.23,9,45.5-23.33.5-46.66.67-70,.5,1.48,18.58,11.48,26.42,30,23.5,3.68-.87,6.68-2.71,9-5.5,2.02-2.18,3.68-4.68,5-7.5,8.66-.5,17.33-.67,26-.5-2.29,12.59-8.63,22.59-19,30-13.56,7.08-27.89,8.91-43,5.5-5.75-1.71-11.09-4.21-16-7.5-5.39-5.06-10.06-10.73-14-17-8.24-20.8-7.91-41.47,1-62,3.3-4.31,6.64-8.64,10-13,12.11-9.28,25.77-12.78,41-10.5,12.02,1.74,22.35,7.9,31,18.5ZM840.5,153.5c11.99-5.23,21.49-2.23,28.5,9,1.15,3.6,1.99,7.27,2.5,11h-43c.28-6.69,2.62-12.52,7-17.5,1.58-1.09,3.24-1.93,5-2.5Z"/>
  <path class="st10" d="M393.5,129.5q1.33.67,0,0Z"/>
  <path class="st4" d="M488.5,129.5c8.95.14,17.61.47,26,1-.43,25.37.07,50.7,1.5,76,2.81,6.57,7.81,9.57,15,9,10.79-.12,17.46-5.45,20-16,.5-23,.67-46,.5-69h28v105c-8.05-.18-16.21.15-24.5,1-.77-.15-1.44-.48-2-1-.33-2-.67-4-1-6-9.99,9.46-21.82,12.96-35.5,10.5-14.43-2.43-23.93-10.6-28.5-24.5-1-6.31-1.83-12.65-2.5-19,.09-9.6.09-19.43,0-29.5.3-12.73,1.3-25.23,3-37.5Z"/>
  <path class="st9" d="M359.5,130.5q1.33.67,0,0Z"/>
  <path class="st7" d="M820.5,130.5q1.33.67,0,0Z"/>
  <path class="st5" d="M355.5,132.5q-.67-1.33,0,0Z"/>
  <path class="st7" d="M483.5,131.5q1.33.67,0,0Z"/>
  <path class="st7" d="M658.5,131.5q1.33.67,0,0Z"/>
  <path class="st7" d="M799.5,131.5q1.33.67,0,0Z"/>
  <path class="st7" d="M818.5,131.5q1.33.67,0,0Z"/>
  <path class="st7" d="M355.5,132.5q1.33.67,0,0Z"/>
  <path class="st5" d="M447.5,132.5q-.67.67,0,0Z"/>
  <path class="st7" d="M824.5,132.5q1.33.67,0,0Z"/>
  <path class="st7" d="M894.5,136.5c1.03.4,1.19,1.06.5,2-.46-.59-.63-1.26-.5-2Z"/>
  <path class="st7" d="M602.5,138.5q1.33.67,0,0Z"/>
  <path class="st5" d="M817.5,139.5q-.67-1.33,0,0Z"/>
  <path class="st7" d="M356.5,139.5q1.33.67,0,0Z"/>
  <path class="st7" d="M481.5,139.5q1.33.67,0,0Z"/>
  <path class="st5" d="M549.5,139.5q1.33.67,0,0Z"/>
  <path class="st7" d="M484.5,141.5q1.33.67,0,0Z"/>
  <path class="st7" d="M355.5,142.5q1.33.67,0,0Z"/>
  <path class="st5" d="M887.5,142.5q1.33.67,0,0Z"/>
  <path class="st7" d="M467.5,143.5q1.33.67,0,0Z"/>
  <path class="st5" d="M476.5,143.5q1.33.67,0,0Z"/>
  <path class="st5" d="M549.5,143.5q1.33.67,0,0Z"/>
  <path class="st7" d="M470.5,144.5q1.33.67,0,0Z"/>
  <path class="st9" d="M476.5,144.5q-.67.67,0,0Z"/>
  <path class="st7" d="M894.5,144.5c1.03.4,1.19,1.06.5,2-.46-.59-.63-1.26-.5-2Z"/>
  <path class="st7" d="M799.5,145.5q1.33.67,0,0Z"/>
  <path class="st6" d="M549.5,146.5c1.07.75,1.24,1.75.5,3-.48-.95-.65-1.95-.5-3Z"/>
  <path class="st7" d="M596.5,147.5q-.67-1.33,0,0Z"/>
  <path class="st5" d="M675.5,146.5q1.33.67,0,0Z"/>
  <path class="st5" d="M889.5,146.5q1.33.67,0,0Z"/>
  <path class="st7" d="M354.5,146.5c1.1,1.1,1.27,2.43.5,4-.49-1.29-.66-2.63-.5-4Z"/>
  <path class="st5" d="M595.5,147.5q-.67.67,0,0Z"/>
  <path class="st7" d="M807.5,152.5c-1.03-.4-1.19-1.06-.5-2,.46.59.63,1.26.5,2Z"/>
  <path class="st7" d="M549.5,151.5c1.03.4,1.19,1.06.5,2-.46-.59-.63-1.26-.5-2Z"/>
  <path class="st7" d="M354.5,152.5q1.33.67,0,0Z"/>
  <path class="st7" d="M681.5,156.5q1.33.67,0,0Z"/>
  <path class="st8" d="M385.5,154.5c1.11,1.45,1.28,3.11.5,5-.49-1.63-.66-3.3-.5-5Z"/>
  <path class="st7" d="M910.5,161.5q1.33.67,0,0Z"/>
  <path class="st7" d="M549.5,163.5q1.33.67,0,0Z"/>
  <path class="st7" d="M384.5,165.5q1.33.67,0,0Z"/>
  <path class="st7" d="M911.5,165.5q1.33.67,0,0Z"/>
  <path class="st7" d="M549.5,167.5c1.03.4,1.19,1.06.5,2-.46-.59-.63-1.26-.5-2Z"/>
  <path class="st7" d="M549.5,171.5q1.33.67,0,0Z"/>
  <path class="st7" d="M685.5,171.5q1.33.67,0,0Z"/>
  <path class="st7" d="M385.5,172.5q1.33.67,0,0Z"/>
  <path class="st5" d="M549.5,175.5q1.33.67,0,0Z"/>
  <path class="st7" d="M798.5,180.5c1.07.75,1.24,1.75.5,3-.48-.95-.65-1.95-.5-3Z"/>
  <path class="st7" d="M549.5,182.5q1.33.67,0,0Z"/>
  <path class="st7" d="M723.5,183.5c.4-1.02,1.06-1.19,2-.5-.59.46-1.26.63-2,.5Z"/>
  <path class="st5" d="M740.5,182.5q1.33.67,0,0Z"/>
  <path class="st7" d="M549.5,184.5q1.33.67,0,0Z"/>
  <path class="st7" d="M798.5,185.5q1.33.67,0,0Z"/>
  <path class="st7" d="M355.5,186.5q1.33.67,0,0Z"/>
  <path class="st7" d="M549.5,187.5q1.33.67,0,0Z"/>
  <path class="st5" d="M355.5,188.5q1.33.67,0,0Z"/>
  <path class="st7" d="M484.5,189.5q1.33.67,0,0Z"/>
  <path class="st7" d="M549.5,191.5q1.33.67,0,0Z"/>
  <path class="st7" d="M685.5,191.5q1.33.67,0,0Z"/>
  <path class="st7" d="M781.5,196.5c-.13-.74.04-1.41.5-2,.69.94.53,1.6-.5,2Z"/>
  <path class="st8" d="M615.5,195.5c1.03.4,1.19,1.06.5,2-.46-.59-.63-1.26-.5-2Z"/>
  <path class="st7" d="M359.5,196.5q-.67.67,0,0Z"/>
  <path class="st7" d="M358.5,198.5q1.33.67,0,0Z"/>
  <path class="st7" d="M615.5,198.5q1.33.67,0,0Z"/>
  <path class="st7" d="M783.5,198.5q1.33.67,0,0Z"/>
  <path class="st7" d="M910.5,200.5q1.33.67,0,0Z"/>
  <path class="st9" d="M361.5,201.5q-.67.67,0,0Z"/>
  <path class="st7" d="M484.5,202.5c1.02.4,1.19,1.06.5,2-.46-.59-.63-1.26-.5-2Z"/>
  <path class="st7" d="M692.5,202.5q1.33.67,0,0Z"/>
  <path class="st7" d="M586.5,204.5q1.33.67,0,0Z"/>
  <path class="st7" d="M617.5,204.5q1.33.67,0,0Z"/>
  <path class="st7" d="M483.5,206.5c.4-1.02,1.06-1.19,2-.5-.59.46-1.26.63-2,.5Z"/>
  <path class="st7" d="M587.5,206.5c1.03.4,1.19,1.06.5,2-.46-.59-.63-1.26-.5-2Z"/>
  <path class="st7" d="M484.5,207.5q1.33.67,0,0Z"/>
  <path class="st7" d="M755.5,208.5q1.33.67,0,0Z"/>
  <path class="st7" d="M588.5,209.5q1.33.67,0,0Z"/>
  <path class="st5" d="M755.5,209.5q-.67.67,0,0Z"/>
  <path class="st7" d="M363.5,210.5q1.33.67,0,0Z"/>
  <path class="st7" d="M405.5,210.5q1.33.67,0,0Z"/>
  <path class="st10" d="M435.5,211.5q-.67-1.33,0,0Z"/>
  <path class="st7" d="M803.5,210.5c1.03.4,1.19,1.06.5,2-.46-.59-.63-1.26-.5-2Z"/>
  <path class="st9" d="M867.5,211.5q-.67-1.33,0,0Z"/>
  <path class="st7" d="M485.5,211.5q1.33.67,0,0Z"/>
  <path class="st7" d="M693.5,212.5q-.67-1.33,0,0Z"/>
  <path class="st7" d="M589.5,212.5q1.33.67,0,0Z"/>
  <path class="st7" d="M418.5,213.5q1.33.67,0,0Z"/>
  <path class="st10" d="M805.5,214.5q-.67-1.33,0,0Z"/>
  <path class="st7" d="M860.5,213.5q1.33.67,0,0Z"/>
  <path class="st9" d="M805.5,214.5h1c-.33,4-.67,4-1,0Z"/>
  <path class="st5" d="M366.5,216.5q1.33.67,0,0Z"/>
  <path class="st8" d="M592.5,217.5c-.74.13-1.41-.04-2-.5.94-.69,1.6-.52,2,.5Z"/>
  <path class="st7" d="M486.5,217.5q1.33.67,0,0Z"/>
  <path class="st9" d="M592.5,217.5h1c-.18.67-.52.67-1,0Z"/>
  <path class="st7" d="M941.5,219.5q1.33.67,0,0Z"/>
  <path class="st7" d="M596.5,221.5c.13.74-.04,1.41-.5,2-.69-.94-.53-1.6.5-2Z"/>
  <path class="st7" d="M764.5,223.5q-.67.67,0,0Z"/>
  <path class="st5" d="M941.5,223.5q1.33.67,0,0Z"/>
  <path class="st10" d="M599.5,225.5q-.67.67,0,0Z"/>
  <path class="st7" d="M457.5,228.5q1.33.67,0,0Z"/>
  <path class="st5" d="M603.5,229.5q-.67.67,0,0Z"/>
  <path class="st7" d="M820.5,231.5q-.67.67,0,0Z"/>
  <path class="st7" d="M387.5,232.5q-.67.67,0,0Z"/>
  <path class="st7" d="M605.5,232.5q1.33.67,0,0Z"/>
  <path class="st7" d="M602.5,234.5c.4-1.02,1.06-1.19,2-.5-.59.46-1.26.63-2,.5Z"/>
  <path class="st5" d="M879.5,233.5q1.33.67,0,0Z"/>
  <path class="st7" d="M792.5,237.5q1.33.67,0,0Z"/>
  <path class="st5" d="M441.5,238.5q1.33.67,0,0Z"/>
  <path class="st5" d="M657.5,238.5q1.33.67,0,0Z"/>
  <path class="st5" d="M831.5,238.5q1.33.67,0,0Z"/>
  <path class="st9" d="M402.5,239.5q1.33.67,0,0Z"/>
  <path class="st5" d="M436.5,239.5c.74-.13,1.41.04,2,.5-.94.69-1.6.52-2-.5Z"/>
  <path class="st7" d="M508.5,240.5c.4-1.02,1.06-1.19,2-.5-.59.46-1.26.63-2,.5Z"/>
  <path class="st7" d="M619.5,239.5q1.33.67,0,0Z"/>
  <path class="st7" d="M830.5,240.5q1.33.67,0,0Z"/>
  <path class="st7" d="M506.5,241.5q1.33.67,0,0Z"/>
  <path class="st9" d="M519.5,242.5c.75-1.07,1.75-1.24,3-.5-.95.48-1.95.65-3,.5Z"/>
  <path class="st7" d="M523.5,241.5q1.33.67,0,0Z"/>
  <path class="st10" d="M526.5,242.5c1.1-1.1,2.43-1.26,4-.5-1.29.49-2.63.66-4,.5Z"/>
  <path class="st7" d="M631.5,241.5q1.33.67,0,0Z"/>
  <path class="st5" d="M643.5,241.5q1.33.67,0,0Z"/>
  <path class="st7" d="M647.5,241.5q1.33.67,0,0Z"/>
  <path class="st5" d="M856.5,242.5c.4-1.02,1.06-1.19,2-.5-.59.46-1.26.63-2,.5Z"/>
  <path class="st0" d="M285.5,280.5q1.33.67,0,0Z"/>
  <path class="st1" d="M98.5,294.5c-.4,1.02-1.06,1.19-2,.5.59-.46,1.26-.63,2-.5Z"/>
  <path class="st2" d="M255.5,294.5q1.33.67,0,0Z"/>
  <path class="st11" d="M99.5,296.5c.4-1.02,1.06-1.19,2-.5-.59.46-1.26.63-2,.5Z"/>
  <path class="st2" d="M250.5,295.5q1.33.67,0,0Z"/>
  <path class="st2" d="M140.5,296.5q1.33.67,0,0Z"/>
  <path class="st2" d="M142.5,296.5q1.33.67,0,0Z"/>
  <path class="st2" d="M174.5,296.5q1.33.67,0,0Z"/>
  <path class="st2" d="M198.5,296.5q1.33.67,0,0Z"/>
  <path class="st2" d="M222.5,296.5q1.33.67,0,0Z"/>
</svg>